<svg width="14" height="15" viewBox="0 0 14 15" fill="none" xmlns="http://www.w3.org/2000/svg">
<path d="M9.45919 4.10615L3.80932 9.84983C3.60583 10.0533 3.4915 10.3293 3.4915 10.6171C3.4915 10.9049 3.60583 11.1809 3.80932 11.3844C4.01282 11.5879 4.28882 11.7022 4.57661 11.7022C4.8644 11.7022 5.1404 11.5879 5.3439 11.3844L12.0789 4.55562C12.2804 4.35409 12.4402 4.11485 12.5493 3.85155C12.6584 3.58825 12.7145 3.30604 12.7145 3.02104C12.7145 2.73605 12.6584 2.45384 12.5493 2.19054C12.4402 1.92724 12.2804 1.68799 12.0789 1.48647C11.8773 1.28495 11.6381 1.12509 11.3748 1.01603C11.1115 0.906964 10.8293 0.85083 10.5443 0.85083C10.2593 0.85083 9.97709 0.906964 9.71379 1.01603C9.45049 1.12509 9.21125 1.28495 9.00972 1.48647L2.27475 8.31526C1.66426 8.92575 1.32129 9.75376 1.32129 10.6171C1.32129 11.4805 1.66426 12.3085 2.27475 12.919C2.88524 13.5295 3.71324 13.8724 4.57661 13.8724C5.43997 13.8724 6.26798 13.5295 6.87847 12.919L12.4432 7.36147" stroke="#81858C" stroke-opacity="0.67" stroke-width="1.08511" stroke-linecap="round" stroke-linejoin="round"/>
</svg>
