<svg width="26" height="26" viewBox="0 0 26 26" fill="none" xmlns="http://www.w3.org/2000/svg">
<path d="M2.0625 12.2188H23.9375" stroke="#76A829" stroke-width="1.59375" stroke-linecap="round" stroke-linejoin="round"/>
<path d="M22.375 18.4688V20.8125C22.375 21.0197 22.2927 21.2184 22.1462 21.3649C21.9997 21.5114 21.801 21.5938 21.5938 21.5938H19.25C19.0428 21.5938 18.8441 21.5114 18.6976 21.3649C18.5511 21.2184 18.4688 21.0197 18.4688 20.8125V18.4688" stroke="#76A829" stroke-width="1.59375" stroke-linecap="round" stroke-linejoin="round"/>
<path d="M7.53125 18.4688V20.8125C7.53125 21.0197 7.44894 21.2184 7.30243 21.3649C7.15591 21.5114 6.9572 21.5938 6.75 21.5938H4.40625C4.19905 21.5938 4.00034 21.5114 3.85382 21.3649C3.70731 21.2184 3.625 21.0197 3.625 20.8125V18.4688" stroke="#76A829" stroke-width="1.59375" stroke-linecap="round" stroke-linejoin="round"/>
<path d="M6.75 15.3438H8.3125" stroke="#76A829" stroke-width="1.59375" stroke-linecap="round" stroke-linejoin="round"/>
<path d="M17.6875 15.3438H19.25" stroke="#76A829" stroke-width="1.59375" stroke-linecap="round" stroke-linejoin="round"/>
<path d="M22.375 12.2188L19.4562 5.65145C19.3948 5.51336 19.2947 5.39603 19.168 5.31368C19.0413 5.23133 18.8934 5.1875 18.7423 5.1875H7.25771C7.10659 5.1875 6.95872 5.23133 6.832 5.31368C6.70529 5.39603 6.60518 5.51336 6.5438 5.65145L3.625 12.2188V18.4688H22.375V12.2188Z" stroke="#76A829" stroke-width="1.59375" stroke-linecap="round" stroke-linejoin="round"/>
</svg>
