<svg width="26" height="26" viewBox="0 0 26 26" fill="none" xmlns="http://www.w3.org/2000/svg">
<path d="M4.61386 17.9763C3.40249 15.9342 2.97825 13.5201 3.42082 11.1874C3.86339 8.85465 5.14232 6.76371 7.01744 5.3072C8.89257 3.85069 11.2349 3.1288 13.6046 3.27709C15.9743 3.42538 18.2084 4.43365 19.8873 6.11256C21.5662 7.79148 22.5745 10.0255 22.7228 12.3953C22.8711 14.765 22.1492 17.1073 20.6927 18.9824C19.2362 20.8576 17.1453 22.1365 14.8126 22.5791C12.4798 23.0217 10.0658 22.5974 8.02369 21.3861L8.02372 21.386L4.65625 22.3481C4.51693 22.3879 4.3695 22.3897 4.22923 22.3534C4.08896 22.3171 3.96097 22.2439 3.85851 22.1414C3.75605 22.0389 3.68286 21.911 3.64651 21.7707C3.61017 21.6304 3.61199 21.483 3.6518 21.3437L4.61393 17.9762L4.61386 17.9763Z" stroke="#76A829" stroke-width="2" stroke-linecap="round" stroke-linejoin="round"/>
</svg>
