<svg width="25" height="25" viewBox="0 0 25 25" fill="none" xmlns="http://www.w3.org/2000/svg">
<path d="M12.5 2.34451C10.736 2.34482 9.00249 2.80449 7.47011 3.67827C5.93773 4.55204 4.6593 5.80981 3.76067 7.32775C2.86203 8.84569 2.37418 10.5715 2.34513 12.3352C2.31607 14.099 2.74682 15.8399 3.59497 17.3866L2.75955 20.3072C2.68279 20.5751 2.67914 20.8587 2.74897 21.1286C2.81879 21.3985 2.95956 21.6447 3.15666 21.8418C3.35376 22.0389 3.60002 22.1797 3.86987 22.2495C4.13973 22.3193 4.42335 22.3157 4.69132 22.2389L7.61261 21.4058C8.97024 22.1509 10.4803 22.5756 12.0272 22.6476C13.5742 22.7195 15.1171 22.4368 16.538 21.821C17.959 21.2052 19.2203 20.2727 20.2255 19.0946C21.2308 17.9166 21.9534 16.5243 22.338 15.0242C22.7226 13.5241 22.7591 11.9559 22.4447 10.4395C22.1304 8.92315 21.4734 7.49874 20.5241 6.2752C19.5747 5.05166 18.3582 4.0614 16.9675 3.38013C15.5767 2.69886 14.0486 2.34463 12.5 2.34451H12.5ZM7.8124 13.6719C7.58063 13.6719 7.35406 13.6031 7.16134 13.4744C6.96863 13.3456 6.81843 13.1626 6.72973 12.9485C6.64103 12.7343 6.61783 12.4987 6.66304 12.2714C6.70826 12.0441 6.81987 11.8352 6.98376 11.6714C7.14765 11.5075 7.35646 11.3959 7.58378 11.3506C7.8111 11.3054 8.04673 11.3286 8.26086 11.4173C8.47499 11.506 8.65801 11.6562 8.78678 11.8489C8.91555 12.0417 8.98428 12.2682 8.98428 12.5C8.98428 12.8108 8.86081 13.1089 8.64104 13.3286C8.42127 13.5484 8.1232 13.6719 7.8124 13.6719ZM12.4999 13.6719C12.2681 13.6719 12.0416 13.6031 11.8488 13.4744C11.6561 13.3456 11.5059 13.1626 11.4172 12.9485C11.3285 12.7343 11.3053 12.4987 11.3505 12.2714C11.3958 12.0441 11.5074 11.8352 11.6713 11.6714C11.8352 11.5075 12.044 11.3959 12.2713 11.3506C12.4986 11.3054 12.7342 11.3286 12.9484 11.4173C13.1625 11.506 13.3455 11.6562 13.4743 11.8489C13.603 12.0417 13.6718 12.2682 13.6718 12.5C13.6718 12.8108 13.5483 13.1089 13.3285 13.3286C13.1088 13.5484 12.8107 13.6719 12.4999 13.6719ZM17.1874 13.6719C16.9556 13.6719 16.7291 13.6031 16.5363 13.4744C16.3436 13.3456 16.1934 13.1626 16.1047 12.9485C16.016 12.7343 15.9928 12.4987 16.038 12.2714C16.0833 12.0441 16.1949 11.8352 16.3588 11.6714C16.5227 11.5075 16.7315 11.3959 16.9588 11.3506C17.1861 11.3054 17.4217 11.3286 17.6359 11.4173C17.85 11.506 18.033 11.6562 18.1618 11.8489C18.2905 12.0417 18.3593 12.2682 18.3593 12.5C18.3593 12.8108 18.2358 13.1089 18.016 13.3286C17.7963 13.5484 17.4982 13.6719 17.1874 13.6719Z" fill="currentColor"/>
</svg>
