<svg width="15" height="14" viewBox="0 0 15 14" fill="none" xmlns="http://www.w3.org/2000/svg">
<path d="M7.5 0.09375C6.13408 0.09375 4.79882 0.498795 3.6631 1.25766C2.52737 2.01653 1.64218 3.09514 1.11946 4.35709C0.596742 5.61904 0.459976 7.00766 0.726455 8.34734C0.992934 9.68702 1.65069 10.9176 2.61655 11.8835C3.5824 12.8493 4.81298 13.5071 6.15266 13.7735C7.49234 14.04 8.88096 13.9033 10.1429 13.3805C11.4049 12.8578 12.4835 11.9726 13.2423 10.8369C14.0012 9.70118 14.4063 8.36593 14.4063 7C14.4041 5.169 13.6758 3.4136 12.3811 2.11888C11.0864 0.824167 9.33101 0.0958662 7.5 0.09375ZM11.2188 7.53125H7.5C7.43023 7.53129 7.36113 7.51758 7.29666 7.49089C7.23218 7.46421 7.1736 7.42508 7.12426 7.37574C7.07492 7.3264 7.03579 7.26782 7.00911 7.20335C6.98243 7.13888 6.96871 7.06978 6.96875 7V3.28125C6.96875 3.14035 7.02472 3.00523 7.12435 2.9056C7.22398 2.80597 7.35911 2.75 7.5 2.75C7.6409 2.75 7.77603 2.80597 7.87565 2.9056C7.97528 3.00523 8.03125 3.14035 8.03125 3.28125V6.46875H11.2188C11.3596 6.46875 11.4948 6.52472 11.5944 6.62435C11.694 6.72398 11.75 6.8591 11.75 7C11.75 7.1409 11.694 7.27602 11.5944 7.37565C11.4948 7.47528 11.3596 7.53125 11.2188 7.53125Z" fill="#8A8A8A"/>
</svg>
