<svg width="25" height="25" viewBox="0 0 25 25" fill="none" xmlns="http://www.w3.org/2000/svg">
<path d="M17.187 11.3281C17.187 12.487 16.8434 13.6199 16.1995 14.5834C15.5557 15.547 14.6406 16.298 13.5699 16.7415C12.4993 17.185 11.3212 17.301 10.1846 17.0749C9.04794 16.8489 8.0039 16.2908 7.18445 15.4714C6.36501 14.6519 5.80695 13.6079 5.58087 12.4713C5.35478 11.3347 5.47082 10.1565 5.9143 9.08586C6.35778 8.0152 7.10879 7.10009 8.07236 6.45626C9.03593 5.81242 10.1688 5.46877 11.3277 5.46877C12.8811 5.47054 14.3705 6.08843 15.4689 7.18689C16.5674 8.28536 17.1853 9.77469 17.187 11.3281ZM22.4264 22.4275C22.2799 22.5741 22.0812 22.6564 21.874 22.6564C21.6667 22.6564 21.468 22.5741 21.3215 22.4275L17.1005 18.2065C15.3251 19.6971 13.0429 20.4447 10.7298 20.2935C8.4166 20.1423 6.25109 19.104 4.68483 17.3951C3.11856 15.6862 2.27245 13.4386 2.32294 11.1211C2.37343 8.80355 3.31662 6.59496 4.95583 4.95589C6.59504 3.31683 8.80372 2.37382 11.1213 2.32353C13.4388 2.27324 15.6863 3.11955 17.3951 4.68596C19.1038 6.25238 20.142 8.41798 20.2929 10.7311C20.4439 13.0443 19.6961 15.3265 18.2054 17.1017L22.4264 21.3227C22.5729 21.4692 22.6552 21.6679 22.6552 21.8751C22.6552 22.0823 22.5729 22.281 22.4264 22.4275ZM11.3277 18.75C12.7956 18.75 14.2305 18.3147 15.451 17.4992C16.6716 16.6837 17.6228 15.5245 18.1846 14.1684C18.7463 12.8122 18.8933 11.3199 18.6069 9.88021C18.3205 8.44051 17.6137 7.11806 16.5757 6.08009C15.5377 5.04212 14.2153 4.33526 12.7756 4.04888C11.3359 3.76251 9.8436 3.90949 8.48743 4.47123C7.13126 5.03298 5.97212 5.98426 5.15659 7.20478C4.34107 8.4253 3.90578 9.86024 3.90578 11.3281C3.90801 13.2959 4.69067 15.1824 6.08206 16.5737C7.47345 17.9651 9.35994 18.7478 11.3277 18.75Z" fill="currentColor"/>
</svg>
