<svg width="125" height="42" viewBox="0 0 125 42" fill="none" xmlns="http://www.w3.org/2000/svg">
<path d="M33.0545 34.8999C32.5485 35.5933 31.9488 36.3429 31.2554 37.1488C30.562 37.9359 29.803 38.6762 28.9784 39.3696C28.1538 40.0442 27.273 40.6064 26.3359 41.0562C25.4176 41.5247 24.4712 41.759 23.4967 41.759C22.8408 41.759 22.2317 41.6559 21.6695 41.4498C21.1073 41.2624 20.5825 41 20.0953 40.6627C19.6268 40.3253 19.177 39.9412 18.746 39.5101C18.3337 39.0603 17.9401 38.6012 17.5653 38.1327C16.3284 36.5959 15.1196 35.0498 13.939 33.4943C12.777 31.9389 11.6432 30.3553 10.5375 28.7436L10.8467 27.591C12.0649 27.3849 13.2924 27.0757 14.5293 26.6634C15.7849 26.2323 16.9843 25.7076 18.1275 25.0891C19.2707 24.452 20.3389 23.7211 21.3322 22.8965C22.3254 22.0532 23.1875 21.1255 23.9184 20.1135C24.6493 19.0828 25.2209 17.9677 25.6332 16.7683C26.0642 15.5501 26.2797 14.2477 26.2797 12.8608C26.2797 11.5302 26.0642 10.3027 25.6332 9.17829C25.2021 8.05385 24.5931 7.07933 23.8059 6.25474C23.0376 5.43015 22.1099 4.79297 21.0229 4.34319C19.936 3.87467 18.7272 3.64041 17.3966 3.64041C15.71 3.64041 14.1264 3.82782 12.6459 4.20264C11.1841 4.57745 9.7879 5.08345 8.45731 5.72063C7.14546 6.33908 5.88046 7.05122 4.66232 7.85707C3.44417 8.66292 2.24477 9.49688 1.0641 10.359L0.192662 9.40318C1.3171 8.31622 2.52588 7.22926 3.81899 6.1423C5.13084 5.0366 6.60198 4.04334 8.23242 3.16253C9.86286 2.28171 11.6807 1.56957 13.686 1.02609C15.71 0.463866 17.987 0.182756 20.517 0.182756C22.2224 0.182756 23.7872 0.482607 25.2115 1.08231C26.6545 1.68201 27.8914 2.51597 28.9222 3.58419C29.9529 4.65241 30.7587 5.91741 31.3397 7.37918C31.9207 8.84096 32.2111 10.4339 32.2111 12.1581C32.2111 14.838 31.5365 17.1712 30.1872 19.1577C28.8378 21.1255 27.0106 22.7278 24.7055 23.9647C24.4244 24.1146 24.0683 24.3114 23.6373 24.555C23.225 24.7987 22.7658 25.061 22.2598 25.3421C21.7726 25.6233 21.2666 25.9044 20.7418 26.1855C20.2171 26.4666 19.7111 26.729 19.2238 26.9726C18.7366 27.1975 18.2868 27.3943 17.8745 27.5629C17.4622 27.7316 17.1155 27.8347 16.8344 27.8721C17.228 28.3969 17.7058 29.0247 18.2681 29.7556C18.849 30.4865 19.4487 31.2361 20.0672 32.0045C20.6856 32.7728 21.2947 33.5037 21.8944 34.1971C22.5128 34.8905 23.0657 35.4528 23.5529 35.8838C24.0215 36.2773 24.49 36.624 24.9585 36.9239C25.4458 37.2237 26.0173 37.3737 26.6733 37.3737C27.1793 37.3737 27.6853 37.2706 28.1913 37.0645C28.6973 36.8396 29.1845 36.5585 29.653 36.2211C30.1216 35.8838 30.562 35.5183 30.9743 35.1248C31.3866 34.7312 31.752 34.3658 32.0706 34.0285L33.0545 34.8999ZM9.27253 39.735L3.48165 41.8714V10.359L9.27253 8.30685V39.735ZM45.9575 41.6466C44.5706 41.6466 43.2682 41.4029 42.05 40.9157C40.8506 40.4097 39.8011 39.7163 38.9016 38.8354C38.0208 37.9546 37.318 36.9239 36.7932 35.7432C36.2872 34.5438 36.0343 33.2414 36.0343 31.8358C36.0343 30.2428 36.2966 28.753 36.8214 27.3661C37.3461 25.9606 38.0676 24.6956 38.9859 23.5711C39.9229 22.4467 41.0193 21.4722 42.2749 20.6476C43.5493 19.823 44.9267 19.1765 46.4072 18.7079L47.2224 19.6918C46.3791 20.3103 45.592 21.0224 44.8611 21.8283C44.1302 22.6154 43.493 23.4774 42.9496 24.4145C42.4061 25.3328 41.9751 26.3073 41.6565 27.338C41.3379 28.35 41.1786 29.3901 41.1786 30.4584C41.1786 31.3579 41.3098 32.3043 41.5721 33.2976C41.8345 34.2908 42.2281 35.1998 42.7528 36.0243C43.2775 36.8489 43.9335 37.533 44.7206 38.0765C45.5264 38.6012 46.4541 38.8636 47.5036 38.8636C48.4406 38.8636 49.2464 38.6949 49.9211 38.3576C50.6145 38.0202 51.1861 37.5611 51.6359 36.9801C52.0857 36.3992 52.423 35.7245 52.6479 34.9561C52.8728 34.169 52.9852 33.3444 52.9852 32.4824C52.9852 31.4704 52.7884 30.4396 52.3949 29.3901C52.0013 28.3219 51.4578 27.338 50.7644 26.4385C50.0898 25.5389 49.2933 24.7893 48.375 24.1896C47.4567 23.5899 46.4728 23.2432 45.4233 23.1495C46.0793 22.3999 46.8008 21.7064 47.5879 21.0693C48.375 20.4321 49.1715 19.823 49.9773 19.242C51.0643 19.5981 52.0201 20.1229 52.8447 20.8163C53.688 21.5097 54.3908 22.3062 54.953 23.2057C55.5339 24.1053 55.9744 25.0891 56.2742 26.1574C56.5741 27.2068 56.724 28.2751 56.724 29.362C56.724 30.8425 56.4616 32.3137 55.9369 33.7755C55.4309 35.2372 54.7 36.5585 53.7442 37.7391C52.8072 38.901 51.6734 39.8474 50.3428 40.5783C49.0309 41.2905 47.5692 41.6466 45.9575 41.6466ZM83.4857 37.6548C83.2608 38.142 82.9797 38.6012 82.6424 39.0322C82.305 39.4633 81.9115 39.8474 81.4617 40.1848C81.0307 40.5221 80.5528 40.7939 80.028 41C79.522 41.1874 78.9879 41.2811 78.4257 41.2811C76.9452 41.2811 75.877 40.8782 75.2211 40.0723C74.5839 39.2477 74.2653 38.1327 74.2653 36.7271V36.2211C73.9279 36.8583 73.5438 37.4955 73.1127 38.1327C72.7004 38.7699 72.2225 39.3414 71.6791 39.8474C71.1543 40.3534 70.564 40.7657 69.9081 41.0843C69.2521 41.4029 68.5213 41.5622 67.7154 41.5622C66.4973 41.5622 65.4197 41.328 64.4826 40.8594C63.5456 40.3909 62.7585 39.7631 62.1213 38.976C61.4841 38.1702 61.0062 37.2331 60.6876 36.1649C60.3691 35.0967 60.2098 33.9629 60.2098 32.7635C60.2098 31.133 60.4909 29.512 61.0531 27.9003C61.634 26.2698 62.4399 24.8174 63.4706 23.543C64.5201 22.2687 65.7664 21.2379 67.2094 20.4508C68.6712 19.645 70.2923 19.242 72.0726 19.242C72.7848 19.242 73.4969 19.3076 74.2091 19.4388C74.9212 19.57 75.5959 19.7855 76.2331 20.0854C76.889 20.3665 77.4793 20.7413 78.004 21.2098C78.5475 21.6783 78.9879 22.2499 79.3253 22.9246L75.1367 24.6956C74.9118 24.3395 74.6495 24.0022 74.3496 23.6836C74.0685 23.3463 73.7499 23.0558 73.3938 22.8122C73.0565 22.5685 72.6911 22.3717 72.2975 22.2218C71.904 22.0719 71.4917 21.9969 71.0606 21.9969C70.0861 21.9969 69.2147 22.2968 68.4463 22.8965C67.6967 23.4962 67.0501 24.2364 66.5066 25.1173C65.9819 25.9981 65.579 26.9351 65.2979 27.9284C65.0167 28.9216 64.8762 29.8212 64.8762 30.627C64.8762 31.3392 64.9418 32.145 65.073 33.0446C65.2229 33.9254 65.4759 34.7593 65.832 35.5465C66.188 36.3336 66.6566 36.9989 67.2375 37.5423C67.8185 38.0858 68.5494 38.3576 69.4302 38.3576C70.1236 38.3576 70.7233 38.2076 71.2293 37.9078C71.7353 37.5892 72.1663 37.1863 72.5224 36.699C72.8785 36.193 73.1689 35.6214 73.3938 34.9842C73.6375 34.3283 73.8155 33.663 73.9279 32.9884C74.0591 32.3137 74.1435 31.6484 74.1809 30.9925C74.2372 30.3178 74.2653 29.7181 74.2653 29.1934V27.2537L79.3815 25.4546V36.8677C79.3815 37.2425 79.4752 37.5892 79.6626 37.9078C79.85 38.2076 80.1405 38.3576 80.534 38.3576C81.0026 38.3576 81.4242 38.1889 81.799 37.8516C82.1926 37.4955 82.5018 37.1394 82.7267 36.7833L83.4857 37.6548ZM108.842 37.6548C108.617 38.142 108.327 38.6012 107.97 39.0322C107.614 39.4633 107.221 39.8474 106.79 40.1848C106.359 40.5221 105.881 40.7939 105.356 41C104.85 41.1874 104.325 41.2811 103.782 41.2811C102.301 41.2811 101.224 40.8782 100.549 40.0723C99.8932 39.2477 99.5652 38.1327 99.5652 36.7271V36.2211C99.2466 36.8583 98.8812 37.4955 98.4689 38.1327C98.0566 38.7699 97.5787 39.3414 97.0352 39.8474C96.5105 40.3534 95.9108 40.7657 95.2361 41.0843C94.5802 41.4029 93.8399 41.5622 93.0153 41.5622C91.7597 41.5622 90.654 41.3186 89.6982 40.8313C88.7612 40.3253 87.9741 39.66 87.3369 38.8354C86.6997 37.9921 86.2125 37.0176 85.8751 35.9119C85.5566 34.8062 85.3973 33.6443 85.3973 32.4261C85.3973 30.8519 85.6409 29.2683 86.1281 27.6754C86.6154 26.0824 87.3275 24.6394 88.2646 23.3463C89.2016 22.0532 90.3542 21.0037 91.7222 20.1978C93.0903 19.3732 94.6552 18.9609 96.4168 18.9609C97.5037 18.9609 98.5532 19.2233 99.5652 19.748V2.48786L104.766 0.688754V36.8677C104.766 37.2425 104.85 37.5892 105.019 37.9078C105.206 38.2076 105.506 38.3576 105.918 38.3576C106.349 38.3576 106.752 38.1889 107.127 37.8516C107.502 37.4955 107.802 37.1394 108.027 36.7833L108.842 37.6548ZM99.5652 29.1934V23.2057C99.1342 22.7747 98.6469 22.4186 98.1034 22.1375C97.5787 21.8564 96.9977 21.7158 96.3606 21.7158C95.2549 21.7158 94.3178 22.0157 93.5495 22.6154C92.7811 23.2151 92.1533 23.9647 91.666 24.8643C91.1788 25.7638 90.8227 26.7383 90.5978 27.7878C90.3729 28.8185 90.2605 29.7837 90.2605 30.6832C90.2605 31.3954 90.3261 32.2012 90.4572 33.1008C90.6072 33.9816 90.8508 34.8156 91.1881 35.6027C91.5442 36.371 92.0034 37.027 92.5656 37.5705C93.1465 38.0952 93.8681 38.3576 94.7301 38.3576C95.4235 38.3576 96.0232 38.2076 96.5292 37.9078C97.054 37.5892 97.4944 37.1863 97.8505 36.699C98.2065 36.193 98.497 35.6214 98.7219 34.9842C98.9468 34.3283 99.1154 33.663 99.2279 32.9884C99.3591 32.3137 99.4434 31.6484 99.4809 30.9925C99.5371 30.3178 99.5652 29.7181 99.5652 29.1934ZM124.697 33.2414C124.697 34.4033 124.481 35.4902 124.05 36.5022C123.619 37.5142 123.029 38.395 122.279 39.1447C121.548 39.8943 120.667 40.4846 119.637 40.9157C118.625 41.3467 117.528 41.5622 116.348 41.5622C115.842 41.5622 115.289 41.5154 114.689 41.4217C114.108 41.328 113.527 41.1874 112.946 41C112.365 40.8126 111.812 40.5783 111.288 40.2972C110.782 40.0161 110.36 39.6788 110.023 39.2852L113.34 34.9561C113.565 35.3122 113.836 35.7058 114.155 36.1368C114.492 36.5491 114.858 36.9333 115.251 37.2893C115.663 37.6454 116.095 37.9453 116.544 38.1889C117.013 38.4138 117.481 38.5262 117.95 38.5262C118.493 38.5262 118.999 38.4325 119.468 38.2451C119.955 38.0577 120.377 37.7953 120.733 37.458C121.089 37.1019 121.37 36.6896 121.576 36.2211C121.782 35.7526 121.885 35.2372 121.885 34.675C121.885 33.9254 121.623 33.2414 121.098 32.6229C120.592 31.9857 119.983 31.3767 119.271 30.7957C118.578 30.196 117.847 29.5869 117.078 28.9685C116.329 28.3313 115.72 27.6379 115.251 26.8883L112.328 31.1611L111.231 30.3459L114.605 25.6795C114.342 25.136 114.136 24.5644 113.986 23.9647C113.836 23.365 113.761 22.7653 113.761 22.1656C113.761 21.6596 113.846 21.1255 114.014 20.5633C114.183 20.001 114.427 19.4857 114.745 19.0172C115.064 18.5486 115.448 18.1645 115.898 17.8646C116.366 17.546 116.9 17.3867 117.5 17.3867C118.081 17.3867 118.568 17.5648 118.962 17.9208C119.374 18.2769 119.58 18.7735 119.58 19.4107C119.58 19.748 119.524 20.0854 119.412 20.4227C119.299 20.76 119.159 21.0974 118.99 21.4347C118.821 21.772 118.634 22.1 118.428 22.4186C118.222 22.7184 118.025 22.9996 117.837 23.2619C118.287 23.8991 118.774 24.452 119.299 24.9205C119.824 25.389 120.339 25.8294 120.845 26.2417C121.351 26.654 121.839 27.0663 122.307 27.4786C122.776 27.8909 123.179 28.3594 123.516 28.8841C123.872 29.4089 124.153 30.0179 124.359 30.7114C124.584 31.4048 124.697 32.2481 124.697 33.2414ZM118.315 19.9167C118.315 19.6543 118.222 19.4576 118.034 19.3264C117.866 19.1952 117.669 19.1296 117.444 19.1296C117.125 19.1296 116.9 19.242 116.769 19.4669C116.638 19.6731 116.572 19.9073 116.572 20.1697C116.572 20.5445 116.629 20.91 116.741 21.266C116.872 21.6221 117.032 21.9594 117.219 22.278C117.294 22.1469 117.388 21.9782 117.5 21.772C117.631 21.5659 117.753 21.3504 117.866 21.1255C117.997 20.8819 118.1 20.657 118.175 20.4508C118.268 20.2259 118.315 20.0479 118.315 19.9167Z" fill="#76A829"/>
</svg>
