<svg width="135" height="190" viewBox="0 0 135 190" fill="none" xmlns="http://www.w3.org/2000/svg">
<path d="M117.613 189.102H17.4293C8.16385 189.102 0.652832 181.591 0.652832 172.326V86.5205L49.7234 52.9176L94.113 93.4497L110.041 78.6709L134.389 95.9711V172.326C134.389 181.591 126.878 189.102 117.613 189.102Z" fill="#73A942"/>
<path d="M81.3871 187.454L81.5351 185.212L84.7889 185.331L84.7167 187.68L81.3871 187.454Z" fill="#2E3A4C"/>
<path d="M81.714 180.528L81.7579 175.831L84.6788 175.766L84.8029 180.544L81.714 180.528Z" fill="#2E3A4C"/>
<path d="M81.6729 171.132L81.4552 166.438L84.0349 166.234L84.4241 170.995L81.6729 171.132Z" fill="#2E3A4C"/>
<path d="M81.0951 161.751L80.5789 157.082L82.8082 156.754L83.5009 161.484L81.0951 161.751Z" fill="#2E3A4C"/>
<path d="M71.1608 125.666L69.2544 121.331L70.0846 120.942L72.1479 125.218L71.1608 125.666Z" fill="#2E3A4C"/>
<path d="M67.3111 117.005L65.4141 112.644L65.9494 112.415L67.9893 116.686L67.3111 117.005Z" fill="#2E3A4C"/>
<path d="M63.9399 108.091C63.7917 107.3 63.7249 106.485 63.8012 105.678C63.8621 104.864 64.1617 104.112 64.3515 103.337L64.5869 103.416C64.4291 104.181 64.1612 104.93 64.1321 105.703C64.0867 106.475 64.1771 107.25 64.3469 108.007L63.9399 108.091Z" fill="#2E3A4C"/>
<path d="M66.8711 99.31C67.4151 98.766 68.0087 98.2659 68.6715 97.8772C68.0231 98.2887 67.4504 98.8074 66.9297 99.3661L66.8711 99.31Z" fill="#2E3A4C"/>
<path d="M67.9589 156.755C68.573 166.028 68.2351 175.961 66.1473 186.032C66.0552 186.539 65.9321 187.061 65.8247 187.567H60.8046C60.912 187.061 61.0347 186.554 61.127 186.032C63.3224 175.546 63.7215 164.937 63.1688 154.912C64.5814 155.91 66.1934 156.54 67.9589 156.755Z" fill="#2E3A4C"/>
<path d="M102.057 186.032C102.088 186.539 102.088 187.061 102.103 187.567H99.0171C99.0017 187.061 99.0017 186.539 98.971 186.032C98.5564 174.088 95.5935 161.821 91.7861 150.644C92.5231 149.938 93.1217 149.232 93.5977 148.51C94.0429 148.894 94.5191 149.232 95.0256 149.539C98.618 160.777 101.627 173.274 102.057 186.032Z" fill="#2E3A4C"/>
<path d="M132.055 93.459V97.3433C131.517 97.4354 131.011 97.4814 130.52 97.4814C128.831 97.4814 127.342 96.9288 125.837 95.977C121.323 93.1675 118.145 88.9917 114.691 85.1229C114.507 84.9232 114.369 84.7084 114.185 84.5394C112.603 82.9428 111.344 80.1642 108.842 80.8088C106.508 81.3922 106.155 84.3093 105.341 86.4125C104.727 87.9936 104.39 89.6827 103.76 91.2485C102.087 95.4398 99.3027 99.6491 94.7327 99.6003C91.1261 99.5617 86.0432 93.9199 80.9768 105.051C80.3485 106.434 80.4397 108.529 81.0379 111.229C81.2611 111.136 81.4731 110.959 81.6662 110.685C85.8286 104.697 93.0807 106.355 98.2674 104.267C103.145 102.287 107.893 100.399 113.21 99.7386C118.446 99.0783 123.405 99.7231 128.56 100.491C129.145 100.583 130.353 100.712 132.056 100.773V93.4592C132.056 93.459 132.055 93.459 132.055 93.459Z" fill="#F8E3CA"/>
<path d="M62.3116 77.2904C60.1929 70.3971 56.6312 64.1946 52.7009 58.2072C50.8741 55.4283 48.3253 54.9985 44.825 56.7641C38.8682 59.7887 33.94 64.1639 29.7335 69.2458C29.3248 69.7377 28.9071 70.2132 28.4817 70.6762C28.4792 70.6927 28.4823 70.709 28.4788 70.7257C28.3853 70.8085 28.2931 70.8929 28.2021 70.9785C27.9416 71.2557 27.6773 71.527 27.41 71.7937C27.0374 72.2153 26.6937 72.6648 26.3861 73.149C26.2393 73.1598 26.0888 73.1696 25.9365 73.1789C24.1244 74.7805 22.1533 76.1653 19.9691 77.3366C17.4976 78.6722 15.0718 80.1308 12.7074 81.6354C11.355 82.4909 10.121 83.4425 9.21155 84.6806C15.7045 82.406 32.4663 81.1818 35.0319 82.4062C40.3146 84.9275 40.2775 88.8749 42.7526 89.66C45.5022 90.5322 48.4719 90.7658 51.3408 90.8466C54.0064 90.9216 58.2256 91.4708 56.4534 96.3898C57.5047 95.1628 58.5234 93.9067 59.5635 92.6587C63.4169 88.0066 64.0157 82.8941 62.3116 77.2904Z" fill="#F8E3CA"/>
<path d="M29.4141 131.152C30.6776 131.048 31.9412 131.071 33.2058 131.22C34.4681 131.37 35.5498 131.649 36.4511 132.06C37.3532 132.469 38.0657 133.101 38.591 133.954C39.1161 134.809 39.3541 135.844 39.3046 137.058C39.2541 138.564 38.6291 140.073 37.4272 141.588C36.2266 143.103 34.8879 144.241 33.4122 144.999L33.3371 145.159C33.5616 145.912 33.9487 146.754 34.5007 147.688C35.0506 148.622 35.8327 149.495 36.8461 150.306C37.8594 151.117 38.8794 151.438 39.905 151.27C40.2046 151.287 40.3303 151.431 40.2799 151.708C40.2048 152.588 39.7368 153.575 38.8728 154.666C38.0098 155.754 36.8147 156.443 35.2887 156.729C33.8625 156.996 32.5855 156.699 31.4599 155.837C30.3333 154.974 29.5017 153.877 28.9643 152.541C28.4256 151.208 28.0251 149.963 27.7624 148.807C27.4999 147.65 27.4068 146.811 27.4808 146.291C27.5055 145.997 27.7322 145.713 28.1563 145.44C29.5837 144.594 30.753 143.658 31.6664 142.631C32.5786 141.604 33.0735 140.325 33.1488 138.791C33.2239 137.281 32.5742 136.186 31.1973 135.503C29.8205 134.819 28.1563 134.722 26.2049 135.209L23.3894 158.162C23.3647 158.311 23.2896 158.398 23.1639 158.42C22.3145 158.773 21.3123 159.058 20.1621 159.273C19.0859 159.474 18.1097 159.56 17.2334 159.531C17.1088 159.555 17.0718 159.502 17.1212 159.372L19.8986 137.041L19.8235 136.982C18.2727 137.658 17.0159 138.684 16.052 140.059C15.0892 141.431 14.5943 142.772 14.5696 144.079C14.5438 144.397 14.5696 144.718 14.6436 145.042C14.7187 145.365 14.757 145.552 14.757 145.6C14.757 145.913 14.4384 146.292 13.7999 146.738C13.1614 147.182 12.4432 147.479 11.642 147.63C10.4648 147.85 9.50203 147.639 8.75138 146.996C8.00074 146.352 7.67518 145.419 7.7752 144.194C8.00074 141.475 9.88364 138.928 13.4241 136.553C16.9644 134.178 20.975 132.558 25.4546 131.695C26.831 131.438 28.1507 131.257 29.4141 131.152Z" fill="white"/>
<path d="M60.0486 135.561C61.6364 137.025 62.2569 139.198 61.9057 142.085C61.5308 145.002 60.3234 147.567 58.2833 149.782C56.2443 151.996 53.7477 153.344 50.7953 153.824C47.9181 154.292 45.6728 153.813 44.0579 152.392C42.4443 150.969 41.8238 148.753 42.1996 145.74C42.5497 142.878 43.7762 140.333 45.878 138.106C47.9809 135.88 50.445 134.539 53.2729 134.081C56.1996 133.606 58.4585 134.098 60.0486 135.561ZM54.5489 148.148C55.3995 146.82 55.938 145.181 56.1624 143.233C56.4127 141.33 56.2691 139.808 55.7315 138.666C55.1929 137.525 54.2357 137.084 52.86 137.342C51.6088 137.577 50.5383 138.361 49.6506 139.697C48.7629 141.033 48.1929 142.666 47.9427 144.593C47.6924 146.617 47.8731 148.169 48.487 149.248C49.0997 150.325 50.0322 150.748 51.2834 150.514C52.6099 150.265 53.6984 149.477 54.5489 148.148Z" fill="white"/>
<path d="M83.4911 142.999C83.6416 143.429 83.8154 143.697 84.0162 143.803C84.2159 143.911 84.5291 144.01 84.9554 144.098C85.1551 144.181 85.2427 144.311 85.218 144.483C85.1428 145.099 84.6535 145.813 83.7535 146.62C82.8525 147.428 81.8649 147.933 80.7876 148.135C79.6622 148.346 78.7924 148.176 78.1798 147.628C77.566 147.08 77.2731 146.189 77.2967 144.955L77.2226 144.968C76.5224 146.305 75.6091 147.411 74.4825 148.285C73.357 149.159 72.1428 149.717 70.8422 149.96C68.6147 150.378 66.9248 149.754 65.7746 148.089C64.6233 146.423 64.2351 144.194 64.611 141.397C64.9611 138.752 65.9498 136.361 67.5756 134.222C69.2028 132.086 71.1553 130.816 73.431 130.414C75.9839 129.936 77.7355 130.681 78.686 132.649L78.7994 132.628L79.3998 129.947C79.3998 129.851 79.4626 129.766 79.5872 129.696C80.5377 129.373 81.4017 129.138 82.1771 128.992C83.279 128.787 84.1789 128.69 84.8803 128.704C85.0049 128.729 85.0677 128.789 85.0677 128.886C84.4662 133.145 83.9164 137.251 83.4158 141.204C83.316 141.97 83.3407 142.568 83.4911 142.999ZM76.5103 143.347C77.3855 142.062 77.9242 140.629 78.1239 139.048C78.3483 137.366 78.1799 136.018 77.6178 135.001C77.0533 133.985 76.1849 133.589 75.0077 133.808C73.9326 134.009 72.9744 134.707 72.1362 135.901C71.298 137.095 70.7672 138.533 70.5417 140.215C70.2914 142.046 70.4486 143.452 71.0107 144.432C71.5741 145.411 72.4055 145.797 73.5063 145.592C74.6329 145.381 75.634 144.634 76.5103 143.347Z" fill="white"/>
<path d="M106.765 138.657C106.916 139.075 107.091 139.337 107.292 139.444C107.491 139.552 107.804 139.65 108.23 139.739C108.404 139.803 108.48 139.933 108.455 140.131C108.38 140.724 107.898 141.429 107.01 142.246C106.121 143.064 105.139 143.575 104.063 143.775C102.913 143.991 102.036 143.824 101.435 143.273C100.835 142.722 100.572 141.836 100.647 140.617L100.534 140.638C99.8337 141.951 98.927 143.043 97.8139 143.914C96.6996 144.786 95.48 145.346 94.1535 145.594C91.9272 146.012 90.2507 145.404 89.1241 143.77C87.9986 142.136 87.5979 139.925 87.9234 137.14C88.2488 134.5 89.2363 132.096 90.888 129.929C92.5399 127.763 94.5047 126.467 96.7815 126.041C98.0316 125.807 99.1076 125.887 100.01 126.286C100.911 126.683 101.573 127.349 101.998 128.283L102.112 128.262L103.575 116.376C103.624 116.246 103.7 116.159 103.801 116.117C104.901 115.742 105.852 115.479 106.653 115.329C107.554 115.161 108.417 115.083 109.242 115.098C109.368 115.123 109.418 115.184 109.393 115.285L106.69 136.845C106.592 137.634 106.615 138.239 106.765 138.657ZM99.8599 138.974C100.735 137.689 101.274 136.256 101.473 134.674C101.673 133.045 101.493 131.711 100.929 130.671C100.366 129.631 99.4963 129.222 98.3203 129.442C97.2441 129.643 96.2938 130.345 95.4678 131.549C94.6419 132.754 94.1168 134.207 93.8913 135.913C93.641 137.745 93.8037 139.137 94.3793 140.091C94.955 141.044 95.7809 141.42 96.8559 141.218C97.9825 141.007 98.9834 140.26 99.8599 138.974Z" fill="white"/>
<path d="M124.712 137.937C123.035 139.613 120.708 140.73 117.73 141.288C116.479 141.522 115.308 141.573 114.22 141.439C113.131 141.306 112.193 140.884 111.405 140.176C110.617 139.466 110.247 138.494 110.298 137.255C110.347 136.376 110.698 135.564 111.349 134.814C112 134.066 112.862 133.59 113.939 133.389C114.564 133.271 115.077 133.29 115.478 133.444C115.878 133.599 116.079 133.784 116.079 134.002C116.079 134.073 115.978 134.382 115.777 134.925C115.578 135.469 115.465 135.936 115.439 136.327C115.39 136.939 115.577 137.447 116.004 137.849C116.428 138.251 117.054 138.388 117.88 138.258C118.755 138.142 119.513 137.777 120.15 137.163C120.79 136.549 121.096 135.846 121.07 135.055C121.07 134.597 120.864 134.135 120.451 133.671C120.038 133.205 119.551 132.748 118.987 132.298C118.424 131.849 117.855 131.377 117.28 130.882C116.704 130.387 116.215 129.78 115.815 129.058C115.415 128.338 115.215 127.556 115.215 126.711C115.215 125.578 115.696 124.492 116.659 123.457C117.624 122.42 118.83 121.766 120.281 121.494C121.008 121.358 121.702 121.337 122.365 121.429C123.029 121.522 123.536 121.65 123.886 121.814C124.236 121.977 124.436 122.127 124.486 122.262C124.611 122.503 124.499 122.705 124.147 122.868C123.398 122.984 122.785 123.249 122.309 123.664C121.833 124.078 121.609 124.586 121.633 125.184C121.659 125.782 121.872 126.333 122.272 126.837C122.672 127.341 123.148 127.782 123.697 128.161C124.248 128.54 124.793 128.932 125.33 129.339C125.869 129.744 126.325 130.249 126.701 130.854C127.076 131.459 127.263 132.135 127.263 132.883C127.239 134.575 126.388 136.26 124.712 137.937Z" fill="white"/>
<path d="M131.319 91.1322C131.253 91.1147 131.066 91.0662 131.007 91.0462C128.286 90.1609 126.1 88.5775 124.499 87.2972C120.701 84.2904 117.188 81.017 113.918 77.9239C112.875 76.9331 111.515 75.591 109.964 75.6175C107.844 75.6537 107.06 77.0893 106.116 78.0286C103.914 80.2199 102.618 81.2871 100.823 82.7658C100.347 83.157 99.8341 83.5813 99.2526 84.0662C95.6898 87.0455 91.3787 86.2741 88.8803 84.2976C88.0726 83.6566 87.3439 82.977 86.6386 82.3194C76.5318 73.0619 66.8919 63.0456 57.5694 53.3583L55.6974 51.4113C52.9548 48.5697 49.7458 48.0866 46.4145 50.0171C45.1851 50.7389 43.9054 51.5489 42.9541 52.5354C33.1273 62.6213 21.9455 71.1956 8.76964 78.7523L8.74807 78.7725L8.40881 78.9635C8.24013 79.0573 7.82197 79.2704 6.76829 79.8048L6.80956 79.8966C6.77538 79.9131 6.74309 79.9278 6.71081 79.9443C5.83306 80.3686 5.23014 80.657 4.84238 80.837C4.62345 80.9399 4.46721 81.0134 4.36499 81.0574C4.26671 81.1013 4.17018 81.1396 4.07505 81.1726C3.89644 81.2347 3.7098 81.2952 3.7098 81.2952C3.7098 81.2952 3.68333 92.1283 3.72885 92.1131C5.57979 91.5297 7.31686 90.6004 7.77204 88.5277C8.0212 87.3835 8.48016 86.4287 9.08118 85.6009C9.97987 84.363 11.1994 83.4113 12.5359 82.5556C14.8725 81.0512 17.2699 79.5924 19.7124 78.2568C21.871 77.0854 23.8189 75.7006 25.6097 74.0992C26.105 73.6561 26.5882 73.1959 27.0604 72.7195C27.0641 72.7158 27.0675 72.7121 27.071 72.7081C27.3161 72.4279 27.5736 72.16 27.8432 71.9039C27.8468 71.9005 27.8505 71.8968 27.8539 71.8932C27.9448 71.7952 28.0349 71.6959 28.1251 71.5966C28.5455 71.1336 28.9583 70.6581 29.3623 70.1662C33.5195 65.0845 38.3897 60.7091 44.2764 57.6845C47.7356 55.9189 50.2544 56.3489 52.0598 59.1277C55.9439 65.115 59.4638 71.3176 61.5575 78.2109C63.2416 83.8145 62.6499 88.927 58.8416 93.5788C57.8137 94.827 56.8068 96.083 55.768 97.3099C55.1869 97.9963 54.5939 98.6722 53.9827 99.3332C51.9369 101.455 47.655 102.627 45.0016 103.344C42.9243 103.904 40.9319 104.174 38.7803 103.256C36.732 102.382 34.4267 102.246 32.1981 102.501C26.5134 103.151 20.8116 103.674 15.167 104.645C14.9394 104.684 14.7101 104.723 14.48 104.767C13.5167 104.953 13.5951 106.342 14.5724 106.429C14.5801 106.429 14.5878 106.43 14.5954 106.431C16.9083 106.648 19.2358 106.844 21.5545 106.811C23.4253 106.785 25.0414 107.14 26.4207 108.469C26.855 108.888 27.3935 109.209 27.9188 109.514C28.5238 109.866 29.1922 110.407 29.8841 109.935C30.5087 109.51 30.3095 108.719 30.2251 108.073C29.7493 104.435 31.0685 104.038 34.1651 105.271C35.6221 105.852 37.0629 106.573 38.3467 107.471C39.5899 108.341 40.8233 108.497 42.2294 108.266C45.3506 107.752 48.0517 106.177 50.8447 104.831C50.9823 104.765 51.1126 104.682 51.2531 104.623C51.7697 104.407 52.303 104.068 52.8385 103.815C52.998 103.74 53.1864 103.834 53.222 104.007C54.2133 108.822 56.8843 117.921 59.1285 129.405C59.1391 129.459 59.1659 129.508 59.2056 129.546C59.556 129.884 59.8982 130.277 60.2462 130.709C60.3665 130.858 60.5983 130.839 60.6946 130.673C61.1765 129.842 61.7172 129.026 62.3159 128.245C62.333 128.222 62.3502 128.198 62.3675 128.176C62.4192 128.109 62.4389 128.022 62.4181 127.939C60.1373 118.871 57.7449 111.891 56.9297 108.133C54.1238 94.4335 75.3195 89.276 84.6401 87.3953C84.9658 87.3296 85.1045 87.7922 84.7958 87.9154C77.7655 90.7201 64.9856 97.5018 70.7725 107.41C70.7788 107.421 70.7834 107.431 70.7879 107.442C71.0352 108.07 74.2172 113.298 78.3388 121.403C78.3733 121.471 78.4346 121.524 78.5084 121.542C78.5705 121.558 78.6286 121.577 78.6869 121.597C78.9447 121.367 79.2329 121.152 79.5516 120.983L79.8911 120.782C79.9075 120.773 79.9248 120.765 79.9428 120.759L80.3254 120.63C81.2343 120.314 82.0944 120.06 82.917 119.856C83.0733 119.817 83.1614 119.653 83.1085 119.501C82.1319 116.694 81.3636 114.213 80.9015 112.101C80.3102 109.4 80.2201 107.306 80.8412 105.922C85.8481 94.7914 90.8712 100.433 94.4353 100.472C98.9516 100.521 101.703 96.3112 103.357 92.12C103.979 90.554 104.312 88.8651 104.919 87.284C105.723 85.1807 106.072 82.2636 108.379 81.6803C110.852 81.0356 112.096 83.8142 113.658 85.4108C113.841 85.5798 113.977 85.7946 114.159 85.9943C117.573 89.8632 120.714 94.0391 125.174 96.8485C126.661 97.8002 128.133 98.3529 129.802 98.3529C130.216 98.3529 130.642 98.3194 131.088 98.2523C131.221 98.2323 131.319 98.116 131.319 97.9817V94.331V91.3923C131.319 91.3138 131.319 91.1876 131.319 91.1322Z" fill="#2E3A4C"/>
<path d="M127.958 38.3715C125.777 33.75 123.059 29.4041 119.881 25.4128C118.3 23.418 116.597 21.5132 114.815 19.7168C102.18 7.09787 85.4003 0.143616 67.5298 0.143616C61.8798 0.143616 56.2609 0.848899 50.8571 2.23017L50.4107 2.35318H50.3961C48.0008 2.99783 45.6203 3.78218 43.2876 4.67127L42.9956 4.77963C32.1878 9.04662 22.5923 16.1256 15.2854 25.2601C10.2947 31.4924 6.5183 38.4632 4.03122 45.9703C1.79031 52.7556 0.65332 59.8328 0.65332 67.0184V125.696C1.6525 125.297 2.67939 124.928 3.72441 124.621L3.71007 75.2072C3.92002 75.0988 4.13548 74.9905 4.34543 74.8838C4.84612 74.6285 5.45108 74.3236 5.71851 74.1841L5.85317 74.1069C18.7132 66.7633 29.5988 58.4371 39.1312 48.6541C40.5312 47.203 42.2524 46.1083 43.7492 45.2302C49.1948 42.0726 55.0891 42.9397 59.5312 47.5428L61.4069 49.4917C70.6735 59.1203 80.2544 69.0778 90.2391 78.2214L90.2571 78.238C90.8854 78.8257 91.5368 79.432 92.1758 79.9388C92.7985 80.431 94.3672 81.0372 95.8461 79.7993C96.4385 79.3052 96.9625 78.8735 97.4471 78.4731C99.1899 77.0367 100.342 76.0889 102.363 74.0776C105.371 71.0854 107.347 69.2504 109.954 69.2283H109.997C112.671 69.2283 114.837 71.282 117.576 73.8791C120.757 76.8879 124.167 80.0673 127.805 82.9475C129.118 83.9976 130.246 84.7424 131.319 85.2606V91.1322V93.1609V111.45C132.271 110.836 133.285 110.344 134.39 109.991V93.1609V84.1867V67.0186C134.39 57.0079 132.224 47.3683 127.958 38.3715ZM55.4436 28.822C50.6385 32.0915 45.3411 34.1635 39.5698 34.9625C36.4674 35.3923 33.2127 35.2693 30.2663 36.1747C24.4308 37.9252 18.812 40.3204 13.0242 42.2546C11.0697 42.9066 9.30826 43.871 7.63671 44.9602C9.9896 38.5516 13.3584 32.5727 17.6786 27.1634C17.8641 26.9337 18.0514 26.7041 18.2407 26.4764C24.2066 27.2202 30.0918 26.4212 35.9771 25.5818C36.9432 25.4439 37.8342 25.1519 38.5872 24.5071C42.0257 21.5444 46.1403 19.8251 50.3006 18.2123C52.0657 17.5363 53.9705 17.2755 55.9048 17.8743C64.0567 20.378 72.4546 20.2383 80.8213 19.994C85.6723 19.8396 90.4168 20.332 95.1448 21.3899C93.2731 21.6819 91.3996 21.7591 89.5113 21.8509C82.6489 22.2347 75.9096 23.7557 69.062 24.2608C64.0417 24.6157 59.5728 25.9969 55.4436 28.822ZM120.86 40.1056C119.372 40.5501 117.882 41.0883 117.315 42.7011C116.47 45.1256 114.659 45.5096 112.493 45.1422C108.072 44.3578 103.634 43.8822 99.1377 44.2053C97.9089 44.2806 96.5569 44.604 95.453 44.2513C91.3533 42.9765 87.1762 43.0225 83.0012 43.2999C76.4916 43.7443 70.0278 43.3459 63.5659 42.6845C62.7357 42.5927 61.7236 42.7157 61.1394 41.3033C69.1682 41.5182 76.7982 40.3976 84.4138 39.1688C89.7572 38.3238 95.3595 38.7702 100.427 36.4981C104.803 34.5474 109.101 32.536 113.952 32.0916C115.012 31.9997 116.516 31.8454 116.654 30.4329C116.771 29.2096 117.122 28.2637 117.635 27.5069C120.491 31.131 122.959 35.071 124.974 39.235C123.59 39.4369 122.214 39.707 120.86 40.1056Z" fill="#FAA627"/>
<path d="M67.5223 3.45209C76.1045 3.45209 84.4281 5.13215 92.2621 8.44563C99.8305 11.6468 106.628 16.2302 112.467 22.0686C118.305 27.907 122.888 34.7048 126.09 42.2732C129.403 50.1071 131.083 58.4308 131.083 67.013V172.431C131.083 179.8 125.088 185.796 117.718 185.796H17.3261C9.95671 185.796 3.96115 179.8 3.96115 172.431V67.013C3.96115 58.4308 5.64121 50.1072 8.95469 42.2732C12.1559 34.7048 16.7393 27.907 22.5777 22.0686C28.416 16.2302 35.2139 11.6468 42.7822 8.44563C50.6164 5.13215 58.9402 3.45209 67.5223 3.45209ZM67.5223 0.144592C30.5917 0.144592 0.653809 30.0827 0.653809 67.013V172.431C0.653809 181.639 8.11836 189.103 17.3263 189.103H117.718C126.926 189.103 134.391 181.639 134.391 172.431V67.013C134.391 30.0825 104.453 0.144592 67.5223 0.144592Z" fill="#2E3A4C"/>
</svg>
