<svg width="99" height="29" viewBox="0 0 99 29" fill="none" xmlns="http://www.w3.org/2000/svg">
<g clip-path="url(#clip0)">
<path d="M20.9466 4.4058C21.9514 4.50088 22.9386 4.69547 23.9087 4.98943C24.877 5.28407 25.6856 5.6545 26.3343 6.10248C26.9841 6.54899 27.4539 7.14471 27.7462 7.88652C28.038 8.63016 28.0796 9.47431 27.8708 10.4189C27.6204 11.592 26.9192 12.6873 25.7652 13.7062C24.6122 14.7252 23.4037 15.4296 22.141 15.8174L22.0598 15.9318C22.1303 16.5533 22.3157 17.2679 22.6176 18.0769C22.9177 18.8856 23.4084 19.6793 24.089 20.457C24.7696 21.2347 25.524 21.6291 26.3513 21.6407C26.5837 21.6959 26.662 21.8269 26.5838 22.0363C26.4016 22.7161 25.8968 23.4235 25.0669 24.1574C24.2382 24.8896 23.2051 25.2623 21.9691 25.2727C20.814 25.2824 19.8549 24.8705 19.0934 24.0375C18.3313 23.2034 17.8333 22.2269 17.5991 21.1052C17.3636 19.9851 17.2242 18.9528 17.1801 18.0102C17.1364 17.0667 17.1809 16.3959 17.3117 15.9991C17.3723 15.7721 17.5896 15.5814 17.9602 15.427C19.1974 14.9638 20.2448 14.3941 21.1045 13.7165C21.9632 13.0396 22.5301 12.1064 22.8039 10.9147C23.0741 9.74236 22.7183 8.79317 21.735 8.0648C20.7516 7.33643 19.4611 7.02689 17.8636 7.13529L12.4431 24.7295C12.4028 24.8431 12.3318 24.9002 12.2302 24.9002C11.5151 25.0574 10.6898 25.1405 9.75824 25.1483C8.88671 25.155 8.10957 25.086 7.42688 24.9405C7.32594 24.9416 7.30431 24.895 7.36131 24.7999L12.6648 7.6885L12.6142 7.63131C11.3042 7.94443 10.1756 8.57223 9.22767 9.51457C8.28095 10.4553 7.70536 11.4369 7.50293 12.458C7.43823 12.7032 7.41353 12.9584 7.42613 13.2229C7.43975 13.4867 7.44365 13.6381 7.4369 13.6758C7.39306 13.9212 7.09026 14.1738 6.52749 14.4335C5.96489 14.6923 5.36039 14.8247 4.71143 14.8304C3.75811 14.8379 3.03311 14.5378 2.53486 13.9289C2.03678 13.3189 1.91221 12.5426 2.16217 11.5963C2.71964 9.49709 4.55195 7.76449 7.65906 6.39938C10.7662 5.03339 14.136 4.32597 17.7675 4.27695C18.8823 4.2675 19.9418 4.31072 20.9466 4.4058Z" fill="#76A829"/>
<path d="M44.3374 12.1507C45.3768 13.5198 45.5588 15.3101 44.8792 17.5236C44.1771 19.7567 42.8717 21.598 40.9627 23.0483C39.0547 24.4978 36.9094 25.2045 34.5284 25.1674C32.208 25.1312 30.5154 24.4413 29.4488 23.1019C28.3835 21.7608 28.2075 19.9371 28.9239 17.6285C29.5991 15.4342 30.9167 13.6114 32.8756 12.161C34.8354 10.7107 36.9543 10.0048 39.2346 10.042C41.5948 10.0789 43.2961 10.7812 44.3374 12.1507ZM38.2648 21.245C39.1175 20.3228 39.7689 19.1143 40.2175 17.6191C40.6802 16.1627 40.7808 14.9492 40.5193 13.9795C40.257 13.0097 39.5687 12.5301 38.4543 12.5397C37.441 12.5483 36.4922 13.0131 35.6095 13.9354C34.7267 14.8584 34.0514 16.0582 33.5853 17.534C33.1059 19.0845 33.0301 20.326 33.3601 21.258C33.6894 22.188 34.361 22.6502 35.3744 22.6416C36.4488 22.632 37.4122 22.1671 38.2648 21.245Z" fill="#76A829"/>
<path d="M61.6678 21.2619C61.7255 21.6198 61.8242 21.8543 61.9666 21.9659C62.1081 22.0783 62.3396 22.1995 62.6613 22.3287C62.8062 22.4217 62.8568 22.5352 62.8132 22.6671C62.6681 23.1394 62.1846 23.6302 61.3664 24.1364C60.5471 24.6435 59.7025 24.9009 58.8299 24.9083C57.9183 24.916 57.2605 24.6615 56.8571 24.1457C56.4528 23.6306 56.348 22.8913 56.5393 21.9273L56.4794 21.9274C55.7435 22.8768 54.8728 23.6159 53.8675 24.1433C52.8631 24.6707 51.8334 24.9378 50.78 24.9465C48.9759 24.9617 47.739 24.2362 47.0707 22.77C46.4016 21.3038 46.4096 19.502 47.0958 17.3631C47.7405 15.3393 48.8501 13.6037 50.4238 12.1553C51.9981 10.7088 53.7062 9.98659 55.5459 9.9905C57.6135 9.97335 58.8819 10.8026 59.3512 12.4781L59.4431 12.4773L60.289 10.4604C60.3025 10.3847 60.3635 10.3276 60.4711 10.2897C61.2612 10.1695 61.9712 10.1067 62.5993 10.1009C63.4916 10.0943 64.2104 10.1446 64.7581 10.2535C64.8523 10.2903 64.893 10.3466 64.8796 10.4221C63.8117 13.6761 62.8059 16.817 61.86 19.8451C61.6746 20.431 61.6102 20.9032 61.6678 21.2619ZM56.1482 20.557C57.014 19.6726 57.6368 18.6251 58.0147 17.4139C58.4261 16.1271 58.4829 15.0473 58.1847 14.1718C57.8847 13.296 57.2596 12.864 56.3063 12.8715C55.4356 12.8783 54.5869 13.2912 53.7628 14.1096C52.9387 14.9279 52.3215 15.98 51.9092 17.2667C51.4566 18.6668 51.3829 19.7908 51.6863 20.6373C51.9906 21.4839 52.5882 21.9029 53.4796 21.896C54.392 21.8885 55.2812 21.443 56.1482 20.557Z" fill="#76A829"/>
<path d="M80.5157 21.1185C80.5751 21.4667 80.6755 21.697 80.8179 21.8087C80.9594 21.9211 81.1909 22.0423 81.5117 22.1714C81.6391 22.2458 81.6807 22.3586 81.6337 22.5098C81.4917 22.9645 81.0148 23.4492 80.2048 23.9651C79.3937 24.4818 78.5527 24.7445 77.6813 24.7512C76.7497 24.7589 76.0855 24.505 75.6921 23.9892C75.2987 23.4733 75.217 22.7426 75.4466 21.7973L75.3548 21.7981C74.6222 22.729 73.7587 23.4576 72.7643 23.9851C71.7689 24.5124 70.7347 24.7804 69.6604 24.789C67.8573 24.8044 66.6285 24.0931 65.9744 22.6548C65.3211 21.2168 65.3166 19.4283 65.9618 17.2911C66.5865 15.2674 67.697 13.5219 69.2948 12.0551C70.8926 10.5891 72.6139 9.84853 74.458 9.83321C75.4705 9.82446 76.3024 10.0385 76.9538 10.477C77.6043 10.9144 78.0299 11.5295 78.2324 12.3208L78.3243 12.32L81.1354 3.21009C81.1923 3.11503 81.2634 3.05781 81.3485 3.0385C82.2636 2.89887 83.0453 2.82619 83.6943 2.8205C84.424 2.81472 85.1111 2.87497 85.7555 3.00182C85.8505 3.0388 85.8815 3.09426 85.848 3.16991L80.7106 19.6876C80.5227 20.2921 80.4564 20.7693 80.5157 21.1185ZM75.0595 20.3995C75.9254 19.5151 76.5481 18.4675 76.9262 17.2555C77.3107 16.0074 77.356 14.9365 77.0602 14.0424C76.7644 13.1483 76.1401 12.7064 75.1876 12.7141C74.3161 12.7207 73.473 13.1382 72.6571 13.9662C71.8412 14.7942 71.2262 15.8594 70.8105 17.1655C70.3579 18.5656 70.2904 19.6797 70.608 20.5078C70.9257 21.3351 71.5204 21.7454 72.3911 21.7375C73.3035 21.7301 74.1926 21.2846 75.0595 20.3995Z" fill="#76A829"/>
<path d="M94.681 23.0668C93.1324 24.1459 91.1521 24.695 88.7401 24.7151C87.7267 24.7237 86.8024 24.5994 85.9681 24.3423C85.1337 24.0853 84.4577 23.6232 83.9394 22.9581C83.4204 22.2918 83.2673 21.4777 83.4804 20.5138C83.6421 19.8321 84.0311 19.2446 84.6462 18.7483C85.261 18.2529 86.0031 18.0007 86.8755 17.9942C87.3817 17.9894 87.781 18.0761 88.0734 18.2527C88.3657 18.4301 88.4972 18.6034 88.4667 18.774C88.4567 18.8303 88.3344 19.0579 88.1008 19.4555C87.8681 19.854 87.7147 20.2041 87.6398 20.5066C87.5153 20.9799 87.5911 21.4036 87.8689 21.779C88.1451 22.1533 88.6167 22.3482 89.2822 22.3618C89.9843 22.3938 90.6291 22.2132 91.2146 21.8213C91.8018 21.4299 92.1402 20.9223 92.2308 20.2987C92.2949 19.9398 92.1978 19.5487 91.9392 19.1267C91.6808 18.7039 91.363 18.2778 90.9837 17.846C90.606 17.4155 90.2262 16.9657 89.8444 16.4973C89.4625 16.0288 89.1641 15.4846 88.952 14.8631C88.7389 14.2424 88.6919 13.6015 88.8102 12.9393C88.9689 12.0511 89.4982 11.268 90.3978 10.5912C91.2992 9.91374 92.3362 9.56992 93.5114 9.56031C94.0994 9.55558 94.6468 9.63606 95.1536 9.80113C95.6604 9.96695 96.0399 10.1383 96.2914 10.3157C96.543 10.4922 96.6784 10.6381 96.6992 10.7507C96.763 10.9572 96.6467 11.0997 96.3487 11.1781C95.745 11.1646 95.2277 11.2863 94.7967 11.5452C94.3658 11.803 94.1189 12.1691 94.0537 12.6412C93.9902 13.1134 94.0801 13.5752 94.3235 14.0261C94.5659 14.4769 94.8771 14.8892 95.2549 15.2634C95.6335 15.6377 96.0053 16.0209 96.3694 16.4154C96.7348 16.8083 97.022 17.268 97.2319 17.7946C97.4409 18.321 97.493 18.8775 97.3883 19.4632C97.1322 20.7859 96.2297 21.9878 94.681 23.0668Z" fill="#76A829"/>
</g>
<defs>
<clipPath id="clip0">
<rect width="99" height="28.1734" fill="white"/>
</clipPath>
</defs>
</svg>
