<svg width="25" height="26" viewBox="0 0 25 26" fill="none" xmlns="http://www.w3.org/2000/svg">
<path d="M1.5625 12.2188H23.4375" stroke="#FEC33A" stroke-width="1.59375" stroke-linecap="round" stroke-linejoin="round"/>
<path d="M21.875 18.4688V20.8125C21.875 21.0197 21.7927 21.2184 21.6462 21.3649C21.4997 21.5114 21.301 21.5938 21.0938 21.5938H18.75C18.5428 21.5938 18.3441 21.5114 18.1976 21.3649C18.0511 21.2184 17.9688 21.0197 17.9688 20.8125V18.4688" stroke="#FEC33A" stroke-width="1.59375" stroke-linecap="round" stroke-linejoin="round"/>
<path d="M7.03125 18.4688V20.8125C7.03125 21.0197 6.94894 21.2184 6.80243 21.3649C6.65591 21.5114 6.4572 21.5938 6.25 21.5938H3.90625C3.69905 21.5938 3.50034 21.5114 3.35382 21.3649C3.20731 21.2184 3.125 21.0197 3.125 20.8125V18.4688" stroke="#FEC33A" stroke-width="1.59375" stroke-linecap="round" stroke-linejoin="round"/>
<path d="M6.25 15.3438H7.8125" stroke="#FEC33A" stroke-width="1.59375" stroke-linecap="round" stroke-linejoin="round"/>
<path d="M17.1875 15.3438H18.75" stroke="#FEC33A" stroke-width="1.59375" stroke-linecap="round" stroke-linejoin="round"/>
<path d="M21.875 12.2188L18.9562 5.65145C18.8948 5.51336 18.7947 5.39603 18.668 5.31368C18.5413 5.23133 18.3934 5.1875 18.2423 5.1875H6.75771C6.60659 5.1875 6.45872 5.23133 6.332 5.31368C6.20529 5.39603 6.10518 5.51336 6.0438 5.65145L3.125 12.2188V18.4688H21.875V12.2188Z" stroke="#FEC33A" stroke-width="1.59375" stroke-linecap="round" stroke-linejoin="round"/>
</svg>
