<svg width="24" height="24" viewBox="0 0 24 24" fill="none" xmlns="http://www.w3.org/2000/svg">
<path d="M8.66965 11.7019C9.44762 13.2924 10.7369 14.5758 12.3309 15.3465C12.4475 15.4018 12.5765 15.4257 12.7052 15.416C12.8339 15.4062 12.9579 15.3632 13.0648 15.291L15.4119 13.7259C15.5157 13.6567 15.6352 13.6144 15.7594 13.603C15.8837 13.5916 16.0088 13.6114 16.1235 13.6605L20.5144 15.5424C20.6636 15.6057 20.7881 15.7158 20.8693 15.8561C20.9504 15.9964 20.9838 16.1593 20.9643 16.3202C20.8255 17.4062 20.2956 18.4044 19.4739 19.1278C18.6521 19.8513 17.5948 20.2504 16.5 20.2505C13.1185 20.2505 9.87548 18.9072 7.48439 16.5161C5.0933 14.125 3.75 10.882 3.75 7.50046C3.75006 6.40562 4.14918 5.34834 4.87264 4.52659C5.5961 3.70484 6.59428 3.17496 7.68028 3.03618C7.84117 3.01671 8.00403 3.05005 8.14432 3.13119C8.28461 3.21232 8.39473 3.33685 8.4581 3.48601L10.3416 7.88081C10.3903 7.99449 10.4101 8.11845 10.3994 8.24165C10.3886 8.36485 10.3475 8.48348 10.2798 8.58696L8.72011 10.9701C8.64912 11.0773 8.60716 11.201 8.59831 11.3293C8.58947 11.4576 8.61405 11.586 8.66965 11.7019V11.7019Z" stroke="#2E394B" stroke-width="1.3125" stroke-linecap="round" stroke-linejoin="round"/>
</svg>
