<svg width="26" height="26" viewBox="0 0 26 26" fill="none" xmlns="http://www.w3.org/2000/svg">
<path d="M9.39212 12.6767C10.2349 14.3997 11.6316 15.7901 13.3585 16.625C13.4848 16.6849 13.6246 16.7108 13.764 16.7003C13.9034 16.6897 14.0377 16.6431 14.1536 16.5649L16.6963 14.8693C16.8087 14.7944 16.9381 14.7486 17.0727 14.7362C17.2073 14.7239 17.3429 14.7453 17.4671 14.7985L22.224 16.8372C22.3856 16.9058 22.5205 17.0251 22.6084 17.1771C22.6963 17.3291 22.7324 17.5055 22.7113 17.6798C22.561 18.8563 21.9869 19.9377 21.0967 20.7214C20.2065 21.5052 19.0611 21.9376 17.875 21.9376C14.2117 21.9376 10.6984 20.4824 8.10809 17.892C5.51774 15.3017 4.0625 11.7884 4.0625 8.12513C4.06256 6.93906 4.49495 5.79367 5.27869 4.90344C6.06244 4.01321 7.1438 3.43918 8.3203 3.28883C8.4946 3.26773 8.67103 3.30386 8.82301 3.39175C8.97499 3.47965 9.09429 3.61455 9.16294 3.77615L11.2034 8.53718C11.2562 8.66033 11.2777 8.79462 11.266 8.92809C11.2543 9.06156 11.2098 9.19007 11.1364 9.30217L9.44678 11.8839C9.36988 12 9.32442 12.1341 9.31484 12.2731C9.30526 12.412 9.33189 12.5511 9.39212 12.6767V12.6767Z" stroke="#76A829" stroke-width="2" stroke-linecap="round" stroke-linejoin="round"/>
</svg>
