<svg width="25" height="25" viewBox="0 0 25 25" fill="none" xmlns="http://www.w3.org/2000/svg">
<path d="M22.6501 20.7018C21.1924 18.1911 18.8578 16.3079 16.0954 15.4145C17.4188 14.6271 18.4471 13.427 19.0223 11.9985C19.5976 10.5701 19.688 8.99232 19.2796 7.50754C18.8713 6.02275 17.9868 4.71307 16.7621 3.77965C15.5373 2.84623 14.04 2.3407 12.5001 2.3407C10.9602 2.3407 9.46283 2.84623 8.23807 3.77965C7.0133 4.71307 6.12883 6.02275 5.7205 7.50754C5.31218 8.99232 5.40258 10.5701 5.97783 11.9985C6.55307 13.427 7.58135 14.6271 8.90471 15.4145C6.14241 16.3079 3.80793 18.191 2.35016 20.7016C2.28144 20.8204 2.24522 20.9551 2.24512 21.0923C2.24502 21.2295 2.28105 21.3643 2.3496 21.4832C2.41814 21.602 2.51678 21.7008 2.63558 21.7694C2.75438 21.838 2.88916 21.8741 3.02636 21.8741L21.9739 21.8743C22.1111 21.8743 22.2459 21.8382 22.3647 21.7696C22.4835 21.701 22.5822 21.6023 22.6507 21.4834C22.7192 21.3646 22.7553 21.2297 22.7552 21.0925C22.7551 20.9553 22.7188 20.8206 22.6501 20.7018L22.6501 20.7018Z" fill="currentColor"/>
</svg>
