<svg width="25" height="25" viewBox="0 0 25 25" fill="none"  xmlns="http://www.w3.org/2000/svg">
<path d="M11.8357 15.4245C12.8839 14.7283 13.6801 13.713 14.1065 12.529C14.5329 11.3451 14.5667 10.0553 14.2031 8.85056C13.8394 7.64585 13.0975 6.59022 12.0873 5.8399C11.0771 5.08959 9.85208 4.68445 8.59368 4.68445C7.33527 4.68445 6.1103 5.08959 5.10006 5.8399C4.08981 6.59022 3.34796 7.64585 2.9843 8.85056C2.62065 10.0553 2.6545 11.3451 3.08086 12.529C3.50722 13.713 4.30343 14.7283 5.35166 15.4245C3.56475 16.0837 2.02035 17.2704 0.923187 18.8272C0.840815 18.9442 0.792161 19.0816 0.782533 19.2244C0.772904 19.3672 0.802672 19.5098 0.868587 19.6368C0.934503 19.7639 1.03403 19.8703 1.15632 19.9446C1.27861 20.0189 1.41896 20.0582 1.56205 20.0582L15.625 20.0577C15.7681 20.0577 15.9084 20.0184 16.0307 19.9441C16.153 19.8698 16.2525 19.7633 16.3184 19.6363C16.3843 19.5092 16.4141 19.3666 16.4044 19.2238C16.3948 19.081 16.3461 18.9437 16.2637 18.8267C15.1666 17.2701 13.6224 16.0836 11.8357 15.4245Z" fill="currentColor"/>
<path opacity='0.8' d="M24.2251 18.8267C23.128 17.2701 21.5838 16.0837 19.7971 15.4246C20.9587 14.6513 21.8063 13.4888 22.1872 12.1463C22.5681 10.8038 22.4573 9.36942 21.8749 8.1013C21.2924 6.83318 20.2765 5.81457 19.0099 5.22877C17.7433 4.64297 16.3092 4.52844 14.9657 4.9058C14.8438 4.9401 14.732 5.00356 14.64 5.09069C14.548 5.17782 14.4786 5.28601 14.4377 5.40595C14.3969 5.52588 14.3858 5.65394 14.4055 5.77911C14.4251 5.90427 14.4749 6.02278 14.5506 6.12441C15.4337 7.31073 15.9414 8.73432 16.0083 10.2118C16.0751 11.6892 15.6981 13.1528 14.9257 14.4141C14.8237 14.5804 14.7876 14.7789 14.8246 14.9705C14.8615 15.1621 14.9688 15.3329 15.1254 15.4493C15.4216 15.6698 15.7066 15.9049 15.9792 16.1539C15.9933 16.1692 16.0075 16.1844 16.0231 16.1988C17.0658 17.1628 17.9109 18.3206 18.5112 19.6075C18.5741 19.7422 18.6742 19.8562 18.7996 19.936C18.925 20.0159 19.0705 20.0583 19.2192 20.0583L23.5865 20.0577C23.7296 20.0577 23.8699 20.0184 23.9922 19.9441C24.1144 19.8697 24.2139 19.7633 24.2798 19.6363C24.3457 19.5092 24.3755 19.3666 24.3658 19.2238C24.3562 19.081 24.3075 18.9437 24.2251 18.8267L24.2251 18.8267Z" fill="currentColor"/>
</svg>
